<?xml version="1.0" encoding="utf-8"?>
<!-- Generator: Adobe Illustrator 21.1.0, SVG Export Plug-In . SVG Version: 6.00 Build 0)  -->
<svg version="1.2" baseProfile="tiny" id="Слой_1"
	 xmlns="http://www.w3.org/2000/svg" xmlns:xlink="http://www.w3.org/1999/xlink" x="0px" y="0px" viewBox="0 0 382.776 59.593"
	 overflow="scroll" xml:space="preserve">
<title>2C4DB27B-1FCB-405A-9841-457E89B90573</title>
<desc>Created with sketchtool.</desc>
<g id="Page-1">
	<g id="главная-1.1" transform="translate(-124.000000, -60.000000)">
		<g id="Group">
			<g id="logo" transform="translate(124.734997, 60.448499)">
				<path id="Shape" fill="#2277BA" d="M51.152,58.483V16.32c2.359,0,9.075-0.122,12.04-0.122c12.463,0,16.397,6.626,16.397,13.554
					c0,7.167-5.386,13.671-15.489,13.671c-1.27,0-3.69,0-5.506-0.182v15.24h-7.442C51.152,58.481,51.152,58.483,51.152,58.483z
					 M58.595,23.248v12.949c1.755,0.179,3.569,0.301,5.263,0.301c4.417,0,7.866-2.109,7.866-6.807c0-4.397-2.723-6.565-7.805-6.565
					C62.406,23.126,60.591,23.187,58.595,23.248L58.595,23.248z"/>
				<polygon id="Shape_1_" fill="#2277BA" points="148.043,16.32 182.952,16.32 182.952,23.25 169.218,23.25 169.218,58.483 
					161.777,58.483 161.777,23.25 148.043,23.25 				"/>
				<rect id="Rectangle-path" x="207.983" y="16.32" fill="#2277BA" width="7.441" height="42.163"/>
				<path id="Shape_2_" fill="#2277BA" d="M275.318,41.016c0,12.888-7.926,18.129-16.821,18.129
					c-10.526,0-18.028-6.203-18.028-18.549V16.321h7.443v22.707c0,7.89,3.265,13.189,10.585,13.189
					c6.416,0,9.439-4.518,9.439-12.708V16.321h7.382V41.016z"/>
				<polygon id="Shape_3_" fill="#2277BA" points="300.359,16.32 307.861,16.32 322.323,37.375 336.117,16.32 343.137,16.32 
					343.137,58.483 335.756,58.483 335.756,28.005 322.385,48.095 321.296,48.095 307.8,28.185 307.8,58.483 300.359,58.483 				"/>
				<path id="Shape_4_" fill="#2277BA" d="M92.817,41.176h7.307l-2.921,6.926h-7.316L92.817,41.176z M100.304,58.489l4.281-10.388
					h-7.383l-4.4,10.388H100.304z M117.245,16.207h-6.535l-10.588,24.969h7.308l6.365-15.39l13.433,32.703h7.926L117.245,16.207z"/>
				<path id="Shape_5_" fill="#2277BA" d="M8.834,27.223c0-2.772,2.239-4.64,5.931-4.64c3.23,0,5.25,1.053,7.215,2.873l4.279-5.282
					c-2.54-2.77-6.897-4.515-12.099-4.515c-8.23,0-13.19,5.3-13.19,11.622c0,13.733,19.181,11.687,19.181,19.999
					c0,3.193-2.663,4.941-6.173,4.941c-3.267,0-7.327-1.66-9.808-4.849L0,52.519c2.056,4.276,8.412,6.626,13.857,6.626
					c7.926,0,14.158-4.816,14.158-11.927C28.015,33.187,8.834,35.959,8.834,27.223"/>
			</g>
		</g>
	</g>
</g>
<g>
	<path fill="#A6ADB1" d="M344.872,14.742V0.105C346.384,0.035,347.798,0,349.114,0c1.624,0,2.835,0.322,3.633,0.966
		s1.197,1.533,1.197,2.667c0,1.582-0.7,2.695-2.101,3.339v0.042c0.798,0.21,1.428,0.606,1.891,1.187
		c0.462,0.581,0.692,1.327,0.692,2.236c0,1.428-0.49,2.52-1.47,3.276c-0.98,0.756-2.311,1.134-3.99,1.134
		S345.922,14.812,344.872,14.742z M349.072,2.415c-0.616,0-1.155,0.021-1.617,0.063v3.717h1.743c0.657,0,1.187-0.168,1.585-0.504
		c0.399-0.336,0.599-0.819,0.599-1.449c0-0.588-0.203-1.04-0.608-1.354C350.367,2.573,349.8,2.415,349.072,2.415z M349.282,8.442
		h-1.827v3.885c0.658,0.07,1.225,0.105,1.701,0.105c1.792,0,2.688-0.707,2.688-2.121c0-0.616-0.224-1.082-0.672-1.396
		S350.094,8.442,349.282,8.442z"/>
	<path fill="#A6ADB1" d="M364.549,12.117l0.693,1.701c-0.938,0.784-2.143,1.176-3.612,1.176c-1.512,0-2.744-0.455-3.696-1.365
		c-0.924-0.896-1.386-2.093-1.386-3.591c0-1.4,0.455-2.576,1.365-3.528s2.121-1.428,3.633-1.428c1.246,0,2.303,0.413,3.171,1.239
		s1.302,1.876,1.302,3.15c0,0.56-0.049,0.994-0.146,1.302h-6.825c0.098,0.687,0.402,1.226,0.914,1.617
		c0.511,0.392,1.151,0.588,1.921,0.588C362.932,12.978,363.821,12.691,364.549,12.117z M361.441,7.098
		c-1.373,0-2.198,0.686-2.479,2.058h4.641c0.015-0.602-0.178-1.095-0.577-1.48C362.628,7.291,362.099,7.098,361.441,7.098z"/>
	<path fill="#A6ADB1" d="M367.762,11.172V2.688h2.415v2.625h3.045v2.268h-3.045v3.444c0,1.134,0.378,1.701,1.134,1.701
		c0.477,0,0.959-0.182,1.449-0.546l0.735,1.869c-0.771,0.616-1.701,0.924-2.793,0.924c-1.022,0-1.768-0.312-2.236-0.935
		C367.996,13.416,367.762,12.46,367.762,11.172z"/>
	<path fill="#A6ADB1" d="M376.267,7.749l-0.609-1.764c1.022-0.602,2.135-0.903,3.339-0.903c1.316,0,2.275,0.322,2.877,0.966
		c0.603,0.644,0.903,1.631,0.903,2.961v5.754h-2.1v-1.092c-0.561,0.812-1.491,1.218-2.793,1.218c-0.896,0-1.614-0.263-2.152-0.788
		c-0.54-0.525-0.809-1.229-0.809-2.11c0-0.98,0.314-1.736,0.944-2.268c0.63-0.532,1.463-0.798,2.499-0.798
		c0.854,0,1.568,0.203,2.143,0.609c0.027-0.84-0.095-1.456-0.368-1.848c-0.272-0.392-0.738-0.588-1.396-0.588
		C378.017,7.098,377.19,7.315,376.267,7.749z M378.682,12.852c0.812,0,1.421-0.287,1.827-0.861v-0.966
		c-0.393-0.308-0.945-0.462-1.659-0.462c-0.448,0-0.813,0.105-1.092,0.315c-0.28,0.21-0.42,0.497-0.42,0.861
		c0,0.336,0.126,0.605,0.378,0.809S378.289,12.852,378.682,12.852z"/>
</g>
</svg>
