<?xml version="1.0" encoding="UTF-8"?>
<svg width="344px" height="44px" viewBox="0 0 344 44" version="1.1" xmlns="http://www.w3.org/2000/svg" xmlns:xlink="http://www.w3.org/1999/xlink">
    <!-- Generator: sketchtool 46.2 (44496) - http://www.bohemiancoding.com/sketch -->
    <title>2C4DB27B-1FCB-405A-9841-457E89B90573</title>
    <desc>Created with sketchtool.</desc>
    <defs></defs>
    <g id="Page-1" stroke="none" stroke-width="1" fill="none" fill-rule="evenodd">
        <g id="главная-1.1" transform="translate(-124.000000, -60.000000)" fill-rule="nonzero" fill="#2277BA">
            <g id="Group">
                <g id="logo" transform="translate(124.734997, 60.448499)">
                    <path d="M51.1524477,42.8245724 L51.1524477,0.662054985 C53.5114642,0.662054985 60.2272931,0.540029165 63.1926902,0.540029165 C75.655443,0.540029165 79.5897451,7.16577161 79.5897451,14.0939823 C79.5897451,21.2610521 74.2040415,27.7647687 64.1003051,27.7647687 C62.8301658,27.7647687 60.4098593,27.7647687 58.5946294,27.5830281 L58.5946294,42.8232742 L51.1524477,42.8232742 L51.1524477,42.8245724 Z M58.5946294,7.59026569 L58.5946294,20.5392823 C60.3498733,20.7184266 62.1637991,20.8404524 63.8577528,20.8404524 C68.2745514,20.8404524 71.723749,18.7309635 71.723749,14.0329694 C71.723749,9.63614541 69.0009042,7.46823987 63.9190429,7.46823987 C62.4063514,7.46823987 60.5911215,7.52925278 58.5946294,7.59026569 L58.5946294,7.59026569 Z" id="Shape"></path>
                    <polygon id="Shape" points="148.042951 0.662054985 182.952221 0.662054985 182.952221 7.59156383 169.218024 7.59156383 169.218024 42.8245724 161.777147 42.8245724 161.777147 7.59156383 148.042951 7.59156383"></polygon>
                    <rect id="Rectangle-path" x="207.983354" y="0.662054985" width="7.44087765" height="42.1625174"></rect>
                    <path d="M275.317689,25.3580041 C275.317689,38.2460078 267.391707,43.4866274 258.49682,43.4866274 C247.970573,43.4866274 240.468405,37.2840809 240.468405,24.9374045 L240.468405,0.663353132 L247.911891,0.663353132 L247.911891,23.370541 C247.911891,31.2606786 251.177218,36.5597148 258.49682,36.5597148 C264.912719,36.5597148 267.935494,32.0421631 267.935494,23.8521535 L267.935494,0.663353132 L275.317689,0.663353132 L275.317689,25.3580041 Z" id="Shape"></path>
                    <polygon id="Shape" points="300.359255 0.662054985 307.861423 0.662054985 322.323276 21.7167017 336.117458 0.662054985 343.137129 0.662054985 343.137129 42.8245724 335.756238 42.8245724 335.756238 12.3466764 322.384566 32.4367998 321.295689 32.4367998 307.800133 12.5271188 307.800133 42.8245724 300.359255 42.8245724"></polygon>
                    <path d="M92.816668,25.5176762 L100.123229,25.5176762 L97.2021695,32.4432906 L89.8864801,32.4432906 L92.816668,25.5176762 Z M100.304491,42.8310631 L104.585669,32.4432906 L97.2021695,32.4432906 L92.8023235,42.8310631 L100.304491,42.8310631 Z M117.245333,0.549116194 L110.710766,0.549116194 L100.123229,25.5176762 L107.431094,25.5176762 L113.796135,10.1281431 L127.229097,42.8310631 L135.155079,42.8310631 L117.245333,0.549116194 Z" id="Shape"></path>
                    <path d="M8.83359713,11.5651919 C8.83359713,8.79364798 11.0726415,6.92561441 14.7643913,6.92561441 C17.9945094,6.92561441 20.0144743,7.97841165 21.9796693,9.79841378 L26.2582391,4.51625352 C23.7179605,1.74600776 19.361148,0.00129814703 14.1593147,0.00129814703 C5.92949013,0.00129814703 0.968905029,5.30163247 0.968905029,11.6236085 C0.968905029,25.3567059 20.1500949,23.3108262 20.1500949,31.6228617 C20.1500949,34.8163034 17.4872361,36.5636093 13.9767485,36.5636093 C10.7101171,36.5636093 6.64932267,34.9032792 4.16903012,31.7150301 L0,36.8608849 C2.0564781,41.1369812 8.41239077,43.4866274 13.8567764,43.4866274 C21.7827586,43.4866274 28.014787,38.6705019 28.014787,31.5592525 C28.014787,17.5288793 8.83359713,20.3004233 8.83359713,11.5651919" id="Shape"></path>
                </g>
            </g>
        </g>
    </g>
</svg>