<?xml version="1.0" encoding="utf-8"?>
<!-- Generator: Adobe Illustrator 21.1.0, SVG Export Plug-In . SVG Version: 6.00 Build 0)  -->
<svg version="1.2" baseProfile="tiny" id="Слой_1"
	 xmlns="http://www.w3.org/2000/svg" xmlns:xlink="http://www.w3.org/1999/xlink" x="0px" y="0px" viewBox="0 0 382.776 59.593"
	 overflow="auto" xml:space="preserve">
<title>2C4DB27B-1FCB-405A-9841-457E89B90573</title>
<desc>Created with sketchtool.</desc>
<g id="Page-1">
	<g id="главная-1.1" transform="translate(-124.000000, -60.000000)">
		<g id="Group">
			<g id="logo" transform="translate(124.734997, 60.448499)">
				<path id="Shape" fill="#2277BA" d="M51.152,58.483V16.32c2.359,0,9.075-0.122,12.04-0.122c12.463,0,16.397,6.626,16.397,13.554
					c0,7.167-5.386,13.671-15.489,13.671c-1.27,0-3.69,0-5.506-0.182v15.24h-7.442C51.152,58.481,51.152,58.483,51.152,58.483z
					 M58.595,23.248v12.949c1.755,0.179,3.569,0.301,5.263,0.301c4.417,0,7.866-2.109,7.866-6.807c0-4.397-2.723-6.565-7.805-6.565
					C62.406,23.126,60.591,23.187,58.595,23.248L58.595,23.248z"/>
				<polygon id="Shape_1_" fill="#2277BA" points="148.043,16.32 182.952,16.32 182.952,23.25 169.218,23.25 169.218,58.483 
					161.777,58.483 161.777,23.25 148.043,23.25 				"/>
				<rect id="Rectangle-path" x="207.983" y="16.32" fill="#2277BA" width="7.441" height="42.163"/>
				<path id="Shape_2_" fill="#2277BA" d="M275.318,41.016c0,12.888-7.926,18.129-16.821,18.129
					c-10.526,0-18.028-6.203-18.028-18.549V16.321h7.443v22.707c0,7.89,3.265,13.189,10.585,13.189
					c6.416,0,9.439-4.518,9.439-12.708V16.321h7.382V41.016z"/>
				<polygon id="Shape_3_" fill="#2277BA" points="300.359,16.32 307.861,16.32 322.323,37.375 336.117,16.32 343.137,16.32 
					343.137,58.483 335.756,58.483 335.756,28.005 322.385,48.095 321.296,48.095 307.8,28.185 307.8,58.483 300.359,58.483 				"/>
				<path id="Shape_4_" fill="#2277BA" d="M92.817,41.176h7.307l-2.921,6.926h-7.316L92.817,41.176z M100.304,58.489l4.281-10.388
					h-7.383l-4.4,10.388H100.304z M117.245,16.207h-6.535l-10.588,24.969h7.308l6.365-15.39l13.433,32.703h7.926L117.245,16.207z"/>
				<path id="Shape_5_" fill="#2277BA" d="M8.834,27.223c0-2.772,2.239-4.64,5.931-4.64c3.23,0,5.25,1.053,7.215,2.873l4.279-5.282
					c-2.54-2.77-6.897-4.515-12.099-4.515c-8.23,0-13.19,5.3-13.19,11.622c0,13.733,19.181,11.687,19.181,19.999
					c0,3.193-2.663,4.941-6.173,4.941c-3.267,0-7.327-1.66-9.808-4.849L0,52.519c2.056,4.276,8.412,6.626,13.857,6.626
					c7.926,0,14.158-4.816,14.158-11.927C28.015,33.187,8.834,35.959,8.834,27.223"/>
			</g>
		</g>
	</g>
</g>
</svg>
