<?xml version="1.0" encoding="utf-8"?>
<!-- Generator: Adobe Illustrator 22.0.1, SVG Export Plug-In . SVG Version: 6.00 Build 0)  -->
<svg version="1.1" id="Слой_1" xmlns="http://www.w3.org/2000/svg" xmlns:xlink="http://www.w3.org/1999/xlink" x="0px" y="0px"
	 viewBox="150 235 950 150" xml:space="preserve">
<style type="text/css">
	.st0{fill:#4E00FF;}
</style>
<g>
	<g>
		<rect x="154.1" y="238.6" class="st0" width="2.8" height="110.7"/>
		<rect x="195.6" y="238.6" class="st0" width="8.3" height="110.7"/>
		<rect x="237.1" y="238.6" class="st0" width="16.6" height="110.7"/>
		<rect x="278.6" y="238.6" class="st0" width="24.9" height="110.7"/>
		<rect x="320.1" y="238.6" class="st0" width="33.2" height="110.7"/>
		<rect x="361.7" y="238.6" class="st0" width="41.5" height="110.7"/>
	</g>
	<g>
		<g>
			<path d="M489.9,278.7v7.3l3.9,3.9h17.1l8.5,8.5v14.4l-8.4,8.4h-24.3l-7.5-7.5l6.4-6.3l6,5.7h14.3l3.9-3.9v-7.5l-3.9-3.9h-17
				l-8.5-8.5v-14.2l8.4-8.4h22.2l7.2,7.1l-6.5,6.4l-5.8-5.5h-12.1L489.9,278.7z"/>
			<path d="M585.2,320.8h-9.6v-53.7h28.6l8.4,8.4v19.3l-8.4,8.5h-15.8l-3.1-2.3V320.8z M598.8,274.9h-13.6v20.7h13.6l4.1-4.1V279
				L598.8,274.9z"/>
			<path d="M694.2,320.8l-3.6-12.2h-16.4l-3.6,12.2h-9.3l15.8-53.7h10.9l16.6,53.7H694.2z M681.1,283.8l-4.8,16.7h12.4l-5-16.7
				l-1-6.1h-0.5L681.1,283.8z"/>
			<path d="M789.8,275.6h-15v45.2h-9.6v-45.2h-15v-8.5h39.7V275.6z"/>
			<path d="M841.4,275.3v-8.2h26.3v8.2h-8.4v37.2h8.4v8.2h-26.3v-8.2h8.2v-37.2H841.4z"/>
			<path d="M963.1,267.1v45.6l-8.5,8.4h-21.7l-8.5-8.4v-45.6h9.6v41.4l4.1,4.1h12.4l4-4.1v-41.4H963.1z"/>
			<path d="M1040.9,320.8l-11.1-34.4l-1.1-5.6h-0.5v40h-8.8v-53.7h14.2l10.5,34.8l1.8,6.9h0.4l1.4-6.9l10.7-34.8h13.8v53.7h-9.6v-40
				h-0.5l-1.1,5.6l-10.8,34.4H1040.9z"/>
		</g>
	</g>
</g>
</svg>
