<?xml version="1.0" encoding="UTF-8" standalone="no"?>
<!-- Generator: Adobe Illustrator 22.0.1, SVG Export Plug-In . SVG Version: 6.00 Build 0)  -->

<svg
   xmlns:dc="http://purl.org/dc/elements/1.1/"
   xmlns:cc="http://creativecommons.org/ns#"
   xmlns:rdf="http://www.w3.org/1999/02/22-rdf-syntax-ns#"
   xmlns:svg="http://www.w3.org/2000/svg"
   xmlns="http://www.w3.org/2000/svg"
   xmlns:sodipodi="http://sodipodi.sourceforge.net/DTD/sodipodi-0.dtd"
   xmlns:inkscape="http://www.inkscape.org/namespaces/inkscape"
   version="1.1"
   id="Слой_1"
   x="0px"
   y="0px"
   viewBox="150 235 950 150"
   xml:space="preserve"
   sodipodi:docname="SPATIUM logo white.svg"
   inkscape:version="0.92.2 (5c3e80d, 2017-08-06)"><metadata
     id="metadata1071"><rdf:RDF><cc:Work
         rdf:about=""><dc:format>image/svg+xml</dc:format><dc:type
           rdf:resource="http://purl.org/dc/dcmitype/StillImage" /><dc:title></dc:title></cc:Work></rdf:RDF></metadata><defs
     id="defs1069" /><sodipodi:namedview
     pagecolor="#ffffff"
     bordercolor="#666666"
     borderopacity="1"
     objecttolerance="10"
     gridtolerance="10"
     guidetolerance="10"
     inkscape:pageopacity="0"
     inkscape:pageshadow="2"
     inkscape:window-width="1858"
     inkscape:window-height="1057"
     id="namedview1067"
     showgrid="false"
     inkscape:pagecheckerboard="true"
     inkscape:zoom="0.56568542"
     inkscape:cx="564.31125"
     inkscape:cy="-32.309704"
     inkscape:window-x="54"
     inkscape:window-y="-8"
     inkscape:window-maximized="1"
     inkscape:current-layer="g1062" /><style
     type="text/css"
     id="style1030">
	.st0{fill:#4E00FF;}
</style><g
     id="g1064"><g
       id="g1044"><rect
         x="154.1"
         y="238.6"
         class="st0"
         width="2.8"
         height="110.7"
         id="rect1032" /><rect
         x="195.6"
         y="238.6"
         class="st0"
         width="8.3"
         height="110.7"
         id="rect1034" /><rect
         x="237.1"
         y="238.6"
         class="st0"
         width="16.6"
         height="110.7"
         id="rect1036" /><rect
         x="278.6"
         y="238.6"
         class="st0"
         width="24.9"
         height="110.7"
         id="rect1038" /><rect
         x="320.1"
         y="238.6"
         class="st0"
         width="33.2"
         height="110.7"
         id="rect1040" /><rect
         x="361.7"
         y="238.6"
         class="st0"
         width="41.5"
         height="110.7"
         id="rect1042" /></g><g
       id="g1062"><g
         id="g1060"
         style="fill:#ffffff"><path
           d="M489.9,278.7v7.3l3.9,3.9h17.1l8.5,8.5v14.4l-8.4,8.4h-24.3l-7.5-7.5l6.4-6.3l6,5.7h14.3l3.9-3.9v-7.5l-3.9-3.9h-17     l-8.5-8.5v-14.2l8.4-8.4h22.2l7.2,7.1l-6.5,6.4l-5.8-5.5h-12.1L489.9,278.7z"
           id="path1046"
           style="fill:#ffffff" /><path
           d="M585.2,320.8h-9.6v-53.7h28.6l8.4,8.4v19.3l-8.4,8.5h-15.8l-3.1-2.3V320.8z M598.8,274.9h-13.6v20.7h13.6l4.1-4.1V279     L598.8,274.9z"
           id="path1048"
           style="fill:#ffffff" /><path
           d="M694.2,320.8l-3.6-12.2h-16.4l-3.6,12.2h-9.3l15.8-53.7h10.9l16.6,53.7H694.2z M681.1,283.8l-4.8,16.7h12.4l-5-16.7     l-1-6.1h-0.5L681.1,283.8z"
           id="path1050"
           style="fill:#ffffff" /><path
           d="M789.8,275.6h-15v45.2h-9.6v-45.2h-15v-8.5h39.7V275.6z"
           id="path1052"
           style="fill:#ffffff" /><path
           d="M841.4,275.3v-8.2h26.3v8.2h-8.4v37.2h8.4v8.2h-26.3v-8.2h8.2v-37.2H841.4z"
           id="path1054"
           style="fill:#ffffff" /><path
           d="M963.1,267.1v45.6l-8.5,8.4h-21.7l-8.5-8.4v-45.6h9.6v41.4l4.1,4.1h12.4l4-4.1v-41.4H963.1z"
           id="path1056"
           style="fill:#ffffff" /><path
           d="M1040.9,320.8l-11.1-34.4l-1.1-5.6h-0.5v40h-8.8v-53.7h14.2l10.5,34.8l1.8,6.9h0.4l1.4-6.9l10.7-34.8h13.8v53.7h-9.6v-40     h-0.5l-1.1,5.6l-10.8,34.4H1040.9z"
           id="path1058"
           style="fill:#ffffff" /></g></g></g></svg>