<svg xmlns="http://www.w3.org/2000/svg" width="38" height="38" viewBox="0 0 38 38">
    <g fill="#FFF" fill-rule="nonzero">
        <path d="M0 38h17.273V20.727H0V38zm3.454-13.818h10.364V34.52H3.454V24.182z"/>
        <path d="M6.909 27.636h3.455v3.455H6.909zM27.636 34.545h3.455V38h-3.455zM34.545 34.545H38V38h-3.455z"/>
        <path d="M34.545 24.182h-3.454v-3.455H20.727V38h3.455V27.636h3.454v3.455H38V20.727h-3.455zM0 17.273h17.273V0H0v17.273zM3.454 3.454h10.364v10.364H3.454V3.454z"/>
        <path d="M6.909 6.909h3.455v3.455H6.909zM20.727 0v17.273H38V0H20.727zm13.818 13.818H24.182V3.454h10.363v10.364z"/>
        <path d="M27.636 6.909h3.455v3.455h-3.455z"/>
    </g>
</svg>
