<?xml version="1.0" encoding="utf-8"?>
<!-- Generator: Adobe Illustrator 21.1.0, SVG Export Plug-In . SVG Version: 6.00 Build 0)  -->
<svg version="1.2" baseProfile="tiny" id="Layer_1" xmlns="http://www.w3.org/2000/svg" xmlns:xlink="http://www.w3.org/1999/xlink"
	 x="0px" y="0px" viewBox="0 0 42.611 26.216" xml:space="preserve">
<g>
	<g>
		<g>
			<path fill="#F7931A" d="M42.601,0H30.436c9.125,6.356,9.125,19.859,0,26.216h12.165V0z M21.302,0
				C14.061,0,8.193,5.868,8.193,13.109c0,7.238,5.868,13.107,13.109,13.107c7.238,0,13.107-5.868,13.107-13.107
				C34.408,5.868,28.54,0,21.302,0 M0,0h12.167c-9.125,6.356-9.125,19.859,0,26.216H0V0z"/>
			<path fill="#FFFFFF" d="M23.004,10.059c0.406,1.626-2.192,2.072-3.004,2.274l-0.716-2.872
				C20.095,9.259,22.582,8.365,23.004,10.059z M24.788,14.359c0.446,1.786-2.662,2.346-3.638,2.59l-0.788-3.166
				C21.336,13.539,24.324,12.497,24.788,14.359z M25.526,8.749c-0.588-1.662-2.202-1.868-4.098-1.568l-0.59-2.362L19.4,5.178
				l0.574,2.3c-0.378,0.094-0.762,0.198-1.144,0.3l-0.578-2.314l-1.436,0.358l0.588,2.362c-0.31,0.084-0.614,0.166-0.912,0.24
				l-0.002-0.008L14.505,8.91l0.382,1.536c0,0,1.058-0.284,1.046-0.26c0.582-0.146,0.856,0.146,0.984,0.424l0.67,2.69
				c0.04-0.01,0.094-0.02,0.156-0.028c-0.048,0.012-0.1,0.026-0.152,0.038l0.939,3.772c0.022,0.19-0.014,0.508-0.42,0.61
				c0.022,0.012-1.046,0.26-1.046,0.26l0.142,1.791l1.872-0.468c0.348-0.086,0.692-0.166,1.03-0.246l0.596,2.388l1.436-0.358
				l-0.59-2.364c0.398-0.09,0.78-0.182,1.152-0.276l0.586,2.354l1.438-0.358l-0.594-2.386c2.384-0.742,3.924-1.772,3.568-4.094
				c-0.286-1.872-1.35-2.472-2.804-2.46C25.624,10.843,25.958,9.965,25.526,8.749z"/>
		</g>
	</g>
</g>
</svg>
