<?xml version="1.0" encoding="UTF-8" standalone="no"?>
<svg
   xmlns:dc="http://purl.org/dc/elements/1.1/"
   xmlns:cc="http://creativecommons.org/ns#"
   xmlns:rdf="http://www.w3.org/1999/02/22-rdf-syntax-ns#"
   xmlns:svg="http://www.w3.org/2000/svg"
   xmlns="http://www.w3.org/2000/svg"
   xmlns:sodipodi="http://sodipodi.sourceforge.net/DTD/sodipodi-0.dtd"
   xmlns:inkscape="http://www.inkscape.org/namespaces/inkscape"
   viewBox="0 0 2000 2000"
   width="2000"
   height="2000"
   version="1.1"
   id="svg76"
   sodipodi:docname="bitcoin-cash.svg"
   inkscape:version="0.92.2 (5c3e80d, 2017-08-06)">
  <metadata
     id="metadata82">
    <rdf:RDF>
      <cc:Work
         rdf:about="">
        <dc:format>image/svg+xml</dc:format>
        <dc:type
           rdf:resource="http://purl.org/dc/dcmitype/StillImage" />
        <dc:title></dc:title>
      </cc:Work>
    </rdf:RDF>
  </metadata>
  <defs
     id="defs80" />
  <sodipodi:namedview
     pagecolor="#ffffff"
     bordercolor="#666666"
     borderopacity="1"
     objecttolerance="10"
     gridtolerance="10"
     guidetolerance="10"
     inkscape:pageopacity="0"
     inkscape:pageshadow="2"
     inkscape:window-width="1858"
     inkscape:window-height="1057"
     id="namedview78"
     showgrid="false"
     inkscape:zoom="0.236"
     inkscape:cx="1292.6063"
     inkscape:cy="319.21664"
     inkscape:window-x="54"
     inkscape:window-y="-8"
     inkscape:window-maximized="1"
     inkscape:current-layer="svg76" />
  <path
     d="M1970,1242c-133.48,535.66-676.18,861.68-1212,728S-103.69,1293.89,30,758.18,706.12-103.7,1241.82,30,2103.69,706.16,1970,1242h0Z"
     fill="#f7931a"
     id="path72" />
  <path
     d="M 1100.4449,748.25544 C 1129.7725,872.32341 942.1047,906.35436 883.4495,921.76748 L 831.7289,702.6265 c 58.583,-15.41311 238.2326,-83.62761 268.716,45.62894 z m 128.8681,328.10106 c 32.217,136.2764 -192.2909,179.0058 -262.7927,197.6236 l -56.9216,-241.5739 c 70.3574,-18.6178 286.197,-98.1251 319.7143,43.9503 z m 53.3097,-428.05742 C 1240.1483,521.48421 1123.5602,505.76588 986.6018,528.65665 l -42.619,-180.22666 -103.8746,27.39262 41.4632,175.4959 c -27.305,7.17245 -55.0435,15.10791 -82.6374,22.89077 l -41.7521,-176.56413 -103.7302,27.31631 42.4745,180.22667 c -22.393,6.40941 -44.3526,12.66622 -65.8788,18.31261 v -0.61042 L 486.66,660.58379 514.254,777.78453 c 0,0 76.4251,-21.66993 75.5583,-19.83866 42.041,-11.14018 61.8335,11.14017 71.0797,32.35228 l 48.3977,205.25395 c 2.8895,-0.7631 6.7902,-1.52609 11.2688,-2.13651 -3.4673,0.91563 -7.2236,1.98391 -10.9798,2.89951 l 67.8291,287.8133 c 1.5892,14.4975 -1.0113,38.7617 -30.3389,46.5445 1.5892,0.9157 -75.5583,19.8387 -75.5583,19.8387 l 10.2574,136.6579 135.2248,-35.7096 c 25.138,-6.562 49.987,-12.6662 74.4026,-18.7704 l 43.0523,182.2105 103.7302,-27.3163 -42.6189,-180.3793 c 28.7497,-6.8672 56.3436,-13.8871 83.2152,-21.0595 l 42.33,179.6162 103.8746,-27.3163 -42.9078,-182.0579 c 172.2093,-56.6165 283.452,-135.2082 257.7362,-312.3827 -20.6594,-142.83842 -97.5179,-188.61996 -202.5483,-187.70433 52.5874,-48.22322 76.714,-115.21687 45.5083,-208.00079 z"
     id="path29"
     inkscape:connector-curvature="0"
     style="fill:#ffffff;stroke-width:74.24117279" />
</svg>
