<svg xmlns="http://www.w3.org/2000/svg" viewBox="0 0 132 50">
                            <g id="Page-1" fill="none" fill-rule="evenodd" stroke="none" stroke-width="1">
                                <g id="Desktop-HD-Copy-6" transform="translate(-72 -26)">
                                    <g id="Group-2" transform="translate(72 26)">
                                        <rect id="Rectangle-2-Copy-2" stroke="#979797" x="0.5" y="8.5" width="122" height="41" rx="1" />
                                        <path id="BLOCKv" fill="#000000" d="M 22.96 16.32 L 28.34 16.32 C 29.6867 16.32 30.7533 16.5933 31.54 17.14 C 32.46 17.7933 32.92 18.7267 32.92 19.94 C 32.92 20.9533 32.5933 21.8067 31.94 22.5 C 31.7533 22.7133 31.5233 22.9067 31.25 23.08 C 30.9767 23.2533 30.6667 23.42 30.32 23.58 C 31.6933 23.8067 32.6867 24.3467 33.3 25.2 C 33.7667 25.8533 34 26.5867 34 27.4 C 34 28.72 33.5 29.82 32.5 30.7 C 31.54 31.5667 30.3733 32 29 32 L 22.96 32 L 22.96 16.32 Z M 28.24 17.7 L 24.54 17.7 L 24.54 23.08 L 27.52 23.08 C 28.72 23.08 29.64 22.81 30.28 22.27 C 30.92 21.73 31.24 21.0333 31.24 20.18 C 31.24 19.5133 31.0133 18.94 30.56 18.46 C 30.0133 17.9533 29.24 17.7 28.24 17.7 Z M 27.96 24.46 L 24.54 24.46 L 24.54 30.62 L 28.34 30.62 C 29.4867 30.62 30.4267 30.3333 31.16 29.76 C 31.8933 29.1467 32.26 28.3667 32.26 27.42 C 32.26 26.46 31.89 25.7267 31.15 25.22 C 30.41 24.7133 29.3467 24.46 27.96 24.46 Z M 39.17 16.32 L 40.75 16.32 L 40.75 30.62 L 48.49 30.62 L 48.49 32 L 39.17 32 L 39.17 16.32 Z M 60.22 32.26 C 58.4067 32.26 56.82 31.5533 55.46 30.14 C 53.9667 28.6067 53.22 26.6267 53.22 24.2 C 53.22 21.88 53.92 19.92 55.32 18.32 C 56.68 16.8133 58.2933 16.06 60.16 16.06 C 62.0533 16.06 63.68 16.8 65.04 18.28 C 66.44 19.84 67.14 21.8067 67.14 24.18 C 67.14 26.6467 66.38 28.6467 64.86 30.18 C 63.5133 31.5667 61.9667 32.26 60.22 32.26 Z M 60.1 30.78 C 61.58 30.78 62.84 30.16 63.88 28.92 C 64.9333 27.6533 65.46 26.0733 65.46 24.18 C 65.46 23.26 65.3333 22.4067 65.08 21.62 C 64.8267 20.8333 64.4467 20.12 63.94 19.48 C 62.9267 18.1867 61.6733 17.54 60.18 17.54 C 58.7 17.54 57.4467 18.1867 56.42 19.48 C 55.4067 20.7467 54.9 22.3267 54.9 24.22 C 54.9 26.1933 55.4333 27.8 56.5 29.04 C 57.5 30.2 58.7 30.78 60.1 30.78 Z M 84.03 17.56 L 84.03 19.58 C 83.5367 19.1 82.97 18.6867 82.33 18.34 C 81.33 17.8067 80.3233 17.54 79.31 17.54 C 77.75 17.54 76.41 18.2 75.29 19.52 C 74.73 20.1733 74.3133 20.8867 74.04 21.66 C 73.7667 22.4333 73.63 23.26 73.63 24.14 C 73.63 25.94 74.19 27.4867 75.31 28.78 C 76.4167 30.0733 77.7633 30.72 79.35 30.72 C 80.0967 30.72 80.86 30.57 81.64 30.27 C 82.42 29.97 83.2167 29.5067 84.03 28.88 L 84.03 30.82 C 82.2433 31.78 80.6233 32.26 79.17 32.26 C 77.29 32.26 75.6433 31.5333 74.23 30.08 C 72.71 28.52 71.95 26.5667 71.95 24.22 C 71.95 21.94 72.6567 20.0133 74.07 18.44 C 75.51 16.8533 77.29 16.06 79.41 16.06 C 80.2367 16.06 81.03 16.1867 81.79 16.44 C 82.55 16.6933 83.2967 17.0667 84.03 17.56 Z M 88.98 16.32 L 90.56 16.32 L 90.56 24.16 L 98.22 16.32 L 100.32 16.32 L 94.18 22.5 L 100.78 32 L 98.72 32 L 92.92 23.7 L 90.56 26.06 L 90.56 32 L 88.98 32 L 88.98 16.32 Z M 104.59 21.3 L 106.21 21.3 L 109.61 30.48 L 113.09 21.3 L 114.53 21.3 L 110.25 32 L 108.87 32 L 104.59 21.3 Z" />
                                        <rect id="Rectangle-2-Copy-3" stroke="#00161e" x="9.5" y="0.5" width="122" height="41" rx="1" />
                                    </g>
                                </g>
                            </g>
                        </svg>