<?xml version="1.0" encoding="utf-8"?>
<!-- Generator: Adobe Illustrator 21.1.0, SVG Export Plug-In . SVG Version: 6.00 Build 0)  -->
<svg version="1.2" baseProfile="tiny" id="Layer_1" xmlns="http://www.w3.org/2000/svg" xmlns:xlink="http://www.w3.org/1999/xlink"
	 x="0px" y="0px" viewBox="0 0 44.488 41.107" overflow="auto" xml:space="preserve">
<g>
	<g>
		<path fill="#3CC8C8" d="M21.698,0.122c0.97-0.506,2.153,0.667,1.638,1.636c-0.299,0.79-1.434,1-2.013,0.398
			C20.709,1.578,20.909,0.436,21.698,0.122 M11.269,1.246c0.589-0.242,1.335,0.297,1.275,0.939c0.063,0.697-0.79,1.21-1.39,0.879
			C10.358,2.756,10.449,1.464,11.269,1.246 M32.629,3.083c-0.92-0.111-1.066-1.558-0.18-1.85c0.687-0.335,1.318,0.293,1.418,0.945
			C33.723,2.735,33.258,3.244,32.629,3.083 M13.642,5.685c0.985-0.623,2.39,0.305,2.238,1.449c-0.051,1.155-1.585,1.824-2.451,1.043
			C12.593,7.563,12.72,6.156,13.642,5.685 M28.675,6.345c0.439-1.132,2.219-1.166,2.72-0.064c0.494,0.858-0.114,1.92-0.994,2.211
			C29.233,8.71,28.125,7.449,28.675,6.345 M20.442,8.428c-0.01-0.973,0.877-1.698,1.802-1.765c0.613,0.123,1.282,0.384,1.545,1.003
			c0.49,0.854,0.055,2.03-0.831,2.422c-0.405,0.227-0.884,0.142-1.326,0.115C20.958,9.873,20.389,9.224,20.442,8.428 M4.933,9.846
			c0.9-0.553,2.113,0.456,1.773,1.433c-0.188,0.845-1.324,1.189-1.973,0.65C4.039,11.424,4.149,10.208,4.933,9.846 M38.237,9.845
			c0.763-0.593,2.023,0.087,1.932,1.051c0.051,0.879-1.038,1.541-1.795,1.089C37.539,11.609,37.454,10.326,38.237,9.845
			 M24.804,11.594c1.259-0.452,2.755,0.089,3.473,1.212c0.947,1.373,0.443,3.463-1.026,4.251c-1.523,0.932-3.746,0.142-4.308-1.558
			C22.304,13.976,23.234,12.071,24.804,11.594 M17.414,11.744c1.396-0.659,3.274-0.106,3.949,1.322
			c0.793,1.39,0.18,3.325-1.239,4.043c-1.42,0.807-3.424,0.195-4.111-1.297C15.242,14.368,15.927,12.408,17.414,11.744
			 M10.015,14.273c0.106-0.899,0.954-1.485,1.81-1.545c0.922,0.111,1.659,0.827,1.759,1.761c-0.061,0.924-0.775,1.827-1.754,1.822
			C10.754,16.404,9.81,15.332,10.015,14.273 M31.87,12.924c1.106-0.644,2.642,0.293,2.593,1.564
			c0.076,1.346-1.624,2.295-2.725,1.505C30.593,15.336,30.682,13.484,31.87,12.924 M14.407,17.669
			c1.293-0.356,2.772,0.254,3.407,1.443c0.695,1.197,0.411,2.859-0.668,3.737c-1.384,1.287-3.937,0.771-4.674-0.987
			C11.625,20.251,12.653,18.093,14.407,17.669 M28.423,17.662c1.257-0.36,2.735,0.125,3.411,1.271
			c0.894,1.31,0.467,3.264-0.864,4.109c-1.394,0.981-3.553,0.466-4.32-1.068C25.72,20.387,26.656,18.146,28.423,17.662
			 M6.088,19.157c1.117-0.423,2.356,0.81,1.903,1.918c-0.276,1.009-1.699,1.382-2.433,0.638C4.698,21.014,5.016,19.46,6.088,19.157
			 M36.373,20.764c-0.032-0.926,0.645-1.746,1.594-1.797c0.765,0.121,1.509,0.738,1.449,1.572c0.07,1.1-1.256,1.848-2.193,1.331
			C36.784,21.647,36.558,21.196,36.373,20.764 M0.594,19.7c0.672-0.293,1.504,0.289,1.35,1.036c-0.036,0.845-1.284,1.17-1.742,0.464
			C-0.203,20.709,0.039,19.953,0.594,19.7z M42.978,19.683c0.473-0.337,1.233-0.095,1.42,0.458c0.318,0.604-0.265,1.431-0.945,1.329
			C42.499,21.558,42.191,20.103,42.978,19.683 M18.058,23.741c1.769-0.46,3.67,1.015,3.681,2.836
			c0.115,1.84-1.757,3.472-3.568,3.047c-1.4-0.225-2.498-1.574-2.452-2.988C15.716,25.284,16.736,24.027,18.058,23.741
			 M25.063,23.737c1.795-0.502,3.753,1,3.725,2.863c0.095,1.806-1.719,3.384-3.492,3.025c-1.668-0.216-2.899-2.049-2.433-3.668
			C23.098,24.879,23.999,24.001,25.063,23.737 M11.557,24.858c1.242-0.212,2.407,1.174,1.903,2.354
			c-0.367,1.257-2.197,1.598-3.006,0.571C9.506,26.797,10.214,24.994,11.557,24.858 M32.1,24.913
			c1.108-0.464,2.468,0.494,2.382,1.697c0.044,1.324-1.634,2.236-2.718,1.464C30.538,27.38,30.762,25.339,32.1,24.913
			 M37.843,30.673c-0.434-0.809,0.354-1.88,1.252-1.731c0.447-0.008,0.759,0.345,1.045,0.64c0.059,0.479,0.157,1.051-0.24,1.42
			C39.359,31.686,38.136,31.491,37.843,30.673 M4.929,29.167c0.839-0.559,2.046,0.274,1.858,1.255
			c-0.1,0.868-1.193,1.363-1.913,0.871C4.101,30.847,4.13,29.575,4.929,29.167 M21.505,30.983c1.098-0.485,2.498,0.472,2.394,1.681
			c0.081,1.337-1.649,2.263-2.723,1.46C19.982,33.435,20.181,31.407,21.505,30.983 M13.828,32.774
			c0.936-0.492,2.191,0.358,2.106,1.405c0.028,0.86-0.811,1.592-1.659,1.465c-0.703-0.015-1.161-0.645-1.386-1.244
			C12.9,33.748,13.168,33.021,13.828,32.774 M29.379,32.79c0.962-0.595,2.329,0.259,2.238,1.379c0.025,1.17-1.521,1.92-2.416,1.151
			C28.334,34.717,28.44,33.269,29.379,32.79 M32.084,39.475c-0.428-0.648,0.076-1.428,0.771-1.575
			c0.559,0.114,1.15,0.534,1.032,1.182C33.805,39.958,32.523,40.227,32.084,39.475 M10.616,38.913
			c0.17-0.513,0.583-1.023,1.187-0.89c0.881,0.063,1.142,1.39,0.371,1.799C11.481,40.289,10.677,39.65,10.616,38.913"/>
	</g>
</g>
<circle fill="#3CC8C8" cx="22.166" cy="39.858" r="1.249"/>
</svg>
