
<svg width="57px" height="64px" viewBox="0 0 57 64" version="1.1" xmlns="http://www.w3.org/2000/svg" xmlns:xlink="http://www.w3.org/1999/xlink">
    <!-- Generator: Sketch 47 (45396) - http://www.bohemiancoding.com/sketch -->
    <desc>Created with Sketch.</desc>
    <defs></defs>
    <g id="Redesign" stroke="none" stroke-width="1" fill="none" fill-rule="evenodd">
        <g id="desktop_1920-copy-3" transform="translate(-1002.000000, -6170.000000)" fill="#191622">
            <g id="footer" transform="translate(1002.000000, 6067.000000)">
                <g id="sign" transform="translate(0.000000, 103.000000)">
                    <path d="M26.6655337,0.508372286 L1.85675425,14.8318517 C1.70322707,14.9207359 1.70322707,15.1429462 1.85675425,15.2318304 L15.7489435,23.2526152 C15.8206569,23.2930171 15.908531,23.2930171 15.9802443,23.2526152 L26.8968345,16.9499207 C26.9675378,16.9085088 27.0119799,16.8317452 27.0119799,16.7499313 L27.0119799,0.708361632 C27.0119799,0.530593324 26.8190609,0.419488132 26.6655337,0.508372286" id="Fill-1"></path>
                    <path d="M0.440870077,46.7308595 L14.3320493,38.7100747 C14.4037626,38.6686627 14.4471947,38.5929092 14.4471947,38.5100853 L14.4471947,25.9046962 C14.4471947,25.8228824 14.4037626,25.7461188 14.3320493,25.7047068 L0.440870077,17.684932 C0.287342902,17.5950378 0.0944238861,17.7071531 0.0944238861,17.8849214 L0.0944238861,46.5308702 C0.0944238861,46.7086385 0.287342902,46.8197437 0.440870077,46.7308595" id="Fill-4"></path>
                    <path d="M29.8444553,0.708462637 L29.8444553,16.7500323 C29.8444553,16.8318462 29.8888973,16.9086098 29.9596006,16.9500217 L40.8761908,23.2517062 C40.9479042,23.2931181 41.0357783,23.2931181 41.1064816,23.2517062 L54.9986709,15.2319314 C55.1532081,15.1430472 55.1532081,14.9208369 54.9986709,14.8319527 L30.1909015,0.50847329 C30.0373743,0.419589136 29.8444553,0.530694329 29.8444553,0.708462637" id="Fill-6"></path>
                    <path d="M1.85705726,49.5836368 L26.6658367,63.9071162 C26.8193639,63.9960004 27.0122829,63.8848952 27.0122829,63.7071269 L27.0122829,47.6665672 C27.0122829,47.5837434 26.9678408,47.5079898 26.8971375,47.4665779 L15.9795373,41.1638833 C15.9078239,41.1224714 15.8199498,41.1224714 15.7482365,41.1638833 L1.85705726,49.1836581 C1.70353009,49.2725423 1.70353009,49.4947527 1.85705726,49.5836368" id="Fill-9"></path>
                    <path d="M29.8444553,47.6661632 L29.8444553,63.7067229 C29.8444553,63.8844912 30.0373743,63.9955964 30.1909015,63.9067122 L54.9986709,49.5832328 C55.1532081,49.4943487 55.1532081,49.2721383 54.9986709,49.1832541 L41.1064816,41.1634793 C41.0357783,41.1220674 40.9479042,41.1220674 40.8761908,41.1634793 L29.9596006,47.4661739 C29.8888973,47.5075858 29.8444553,47.5833393 29.8444553,47.6661632" id="Fill-11"></path>
                    <path d="M28.448065,30.5611148 L37.8465542,25.1351412 C37.9859408,25.0543374 37.9859408,24.8533381 37.8465542,24.7725343 L28.5318989,19.396053 C28.4672559,19.3586813 28.3874622,19.3586813 28.3228191,19.396053 L18.9930131,24.7826348 C18.8536266,24.8634385 18.8526166,25.0634279 18.990993,25.1442316 L28.2379752,30.5601048 C28.3026182,30.5984866 28.383422,30.5984866 28.448065,30.5611148" id="Fill-13"></path>
                    <path d="M39.575553,38.5230139 L39.575553,27.7690413 C39.575553,27.6084438 39.4018249,27.5074391 39.2624384,27.5882429 L29.9487931,32.9647241 C29.8841501,33.0020959 29.8447583,33.0717891 29.8447583,33.1455226 L29.8447583,43.9005052 C29.8447583,44.0611027 30.0184864,44.1610974 30.1578729,44.0813037 L39.4715182,38.7038124 C39.5361612,38.6664406 39.575553,38.5977574 39.575553,38.5230139" id="Fill-15"></path>
                    <path d="M27.0119799,43.9004042 L27.0119799,33.1464316 C27.0119799,33.0716881 26.972588,33.0030049 26.907945,32.9656332 L17.5932897,27.5881419 C17.4539032,27.5073381 17.2801751,27.6073328 17.2801751,27.7689403 L17.2801751,38.5229129 C17.2801751,38.5976564 17.3195669,38.6673497 17.3842099,38.7047214 L26.6988653,44.0812027 C26.8382518,44.1620065 27.0119799,44.0610017 27.0119799,43.9004042" id="Fill-17"></path>
                    <path d="M42.2370274,25.9051002 L42.2370274,38.5104893 C42.2370274,38.5923031 42.2814695,38.6690667 42.3521728,38.7104787 L56.2443621,46.7312635 C56.3988993,46.8201477 56.5908083,46.7090425 56.5908083,46.5302641 L56.5908083,17.8843154 C56.5908083,17.706547 56.3988993,17.5954419 56.2443621,17.684326 L42.3521728,25.7051109 C42.2814695,25.7465228 42.2370274,25.8222763 42.2370274,25.9051002" id="Fill-19"></path>
                </g>
            </g>
        </g>
    </g>
</svg>