<?xml version="1.0" encoding="utf-8"?>
<!-- Generator: Adobe Illustrator 21.1.0, SVG Export Plug-In . SVG Version: 6.00 Build 0)  -->
<svg version="1.2" baseProfile="tiny" id="Layer_1" xmlns="http://www.w3.org/2000/svg" xmlns:xlink="http://www.w3.org/1999/xlink"
	 x="0px" y="0px" viewBox="0 0 53.886 80.347" overflow="auto" xml:space="preserve">
<g>
	<g>
		<path fill="#070606" d="M26.869,0L9.299,24.839L0,64.497l26.864,15.85l27.021-15.841l-9.128-39.648L26.869,0z M44.026,24.975
			l-4.623,14.53L27.206,18.431L27.2,1.594L44.026,24.975z M26.87,19.171l12.262,21.187L31.66,63.843l-9.493-0.002l-7.398-23.659
			L26.87,19.171z M26.539,1.612l0.006,16.798L14.5,39.322l-4.486-14.348L26.539,1.612z M9.599,26.175l4.409,14L1.278,62.278
			L9.599,26.175z M14.383,41.164l7.09,22.677L1.222,63.836L14.383,41.164z M1.518,64.504l20.163,0.002l4.63,14.774L1.518,64.504z
			 M22.545,64.503l8.88,0.002l-4.556,14.403L22.545,64.503z M27.443,79.279l4.701-14.773l20.305,0.01L27.443,79.279z M32.354,63.843
			l7.222-22.7l3.613,6.224l9.538,16.481L32.354,63.843z M43.75,47.014l-3.848-6.648l4.47-14.192l8.376,36.343L43.75,47.014z"/>
	</g>
</g>
</svg>
