<?xml version="1.0" encoding="utf-8"?>
<!-- Generator: Adobe Illustrator 21.1.0, SVG Export Plug-In . SVG Version: 6.00 Build 0)  -->
<svg version="1.1" id="Layer_1" xmlns="http://www.w3.org/2000/svg" xmlns:xlink="http://www.w3.org/1999/xlink" x="0px" y="0px"
	 viewBox="0 0 606.69995 633.09998" enable-background="new 0 0 606.69995 633.09998" xml:space="preserve">
<linearGradient id="SVGID_1_" gradientUnits="userSpaceOnUse" x1="1351.4613" y1="-378.02362" x2="1432.47119" y2="-212.48361" gradientTransform="matrix(3.6525 0 0 3.6525 -4753.25781 1420.59351)">
	<stop  offset="0" style="stop-color:#5600DB"/>
	<stop  offset="1" style="stop-color:#21A9D5"/>
</linearGradient>
<path fill="url(#SVGID_1_)" d="M290.79999,205.60001C193.2,355,133.2,562.5,110,633.09998c-13.1-132.89999,56.3-314.10001,107.2-421
	c-23.60001,1-148.2,9.8-217.10001,80.89999c0,0,37.4-114.10001,252.5-149.10001l0.7-1.3
	C421.59998-103.30003,548,43.49996,548,43.49996c-76.70001-12.6-143.70001,25.6-200.60001,87.9
	c27.60001-1.2,207.39999-3.10001,259.29996,138.79999C606.59998,270.29999,502.39999,195.7,290.79999,205.60001L290.79999,205.60001
	z M412.39999,376.70001c-43.10001,0-78,34.89999-78,78s34.89999,78,78,78s78-34.89999,78-78l0,0
	C490.39999,411.70001,455.5,376.79999,412.39999,376.70001z"/>
</svg>
