<?xml version="1.0" encoding="utf-8"?>
<!-- Generator: Adobe Illustrator 21.1.0, SVG Export Plug-In . SVG Version: 6.00 Build 0)  -->
<svg version="1.2" baseProfile="tiny" id="Layer_1" xmlns="http://www.w3.org/2000/svg" xmlns:xlink="http://www.w3.org/1999/xlink"
	 x="0px" y="0px" viewBox="0 0 33.944 33.957" overflow="auto" xml:space="preserve">
<g>
	<path fill="#67B2E8" d="M24.933,25.483c0.135-0.553,0.153-1.039,0.168-1.468c0.067-2.955-1.313-5.574-4.065-7.226
		c0,0-3.129-1.647-3.771-5.5c-0.734-3.945,2.258-8.023,6.111-8.757c1.193-0.183,2.468-0.056,3.569,0.22
		c1.009,0.367,2.165,0.773,3.082,1.231c0.734,0.367,2.816,1.424,2.816,1.608c0,0.826-0.027,2.268-0.119,3.094
		c-0.459,4.954-1.894,9.434-4.646,13.562C25.807,25.851,24.933,25.483,24.933,25.483z"/>
	<path fill="#F7A800" d="M1.101,5.286c2.018-1.193,4.475-2.179,6.768-2.913c3.119-0.917,6.706-1.279,9.917-1.188
		c1.468,0,3.22,0.391,4.688,0.667c0,0-4.742,2.806-5.813,6.75c-0.092,0.459,0.188,2.792-0.514,4.072
		c-1.101,3.853-5.642,5.862-9.403,4.761c-2.018-0.55-3.728-2.04-4.646-3.875c-0.092-0.183-0.646-1.857-0.896-4.107
		C1.019,8.169,1.101,5.378,1.101,5.286L1.101,5.286z"/>
	<path fill="#00C4B3" d="M16.972,32.81c-0.642-0.275-1.344-0.716-1.895-1.083c-1.743-1.193-3.378-2.607-4.938-4.167
		c-1.468-1.56-3.024-3.332-4.125-5.167c-1.101-1.651-2.478-4.703-3.212-6.629c0,0,1.914,1.427,2.879,1.671
		c0.826,0.367,1.674,0.45,2.5,0.542c1.835,0.183,3.461-0.081,5.021-0.999c0.826-0.459,1.824-0.847,2.833-0.939
		c3.486-0.459,7.366,1.71,8.375,5.104c0.55,1.743,0.659,3.774-0.167,5.333c-0.092,0.183-0.762,1.512-0.854,1.604
		c-1.743,1.651-3.119,2.891-5.229,4.083L16.972,32.81L16.972,32.81z"/>
	<path d="M16.972,33.957l-0.183-0.092C9.083,29.37,3.395,21.939,1.102,13.316c-0.367-1.376-0.642-2.752-0.826-4.22
		C0.093,7.629-0.012,6.253,0.001,4.785C0.004,4.483-0.002,4.53,0.185,4.418c5.412-3.027,11.467-4.587,17.613-4.403
		c0.917,0,1.835,0.092,2.752,0.183c4.587,0.459,9.082,1.926,13.118,4.22l0.183,0.092c0.104,0.047,0.092,0.092,0.092,0.183v0.275
		c0,0.826,0,1.651-0.092,2.477c-0.092,1.193-0.275,2.385-0.459,3.578c-0.459,2.569-1.284,5.045-2.293,7.339
		c-2.844,6.422-7.706,11.834-13.76,15.412L16.972,33.957L16.972,33.957z M1.469,5.61v0.183c0,1.193,0.092,2.385,0.183,3.578
		c0.092,1.101,0.275,2.11,0.55,3.211c0.048,0.186,0.092,0.367,0.183,0.55c1.651,3.578,5.963,5.229,9.632,3.486
		c1.926-0.917,3.303-2.569,3.853-4.587c0.183-0.734,0.275-1.376,0.275-2.11c0-0.459,0.092-0.917,0.183-1.376
		c0.55-2.844,2.477-5.229,5.137-6.33l0.459-0.183c0,0,0.193-0.054,0-0.092c-1.468-0.275-2.936-0.367-4.495-0.459
		C11.927,1.391,6.423,2.767,1.469,5.61z M25.412,25.058c0.054,0.002,0.183-0.183,0.183-0.183c0.642-0.826,1.284-1.651,1.835-2.569
		c2.752-4.22,4.403-8.99,4.862-13.944c0.092-0.826,0.092-1.743,0.092-2.569V5.682l-0.275-0.163
		c-0.642-0.367-1.376-0.734-2.018-1.101c-1.009-0.459-2.018-0.917-3.027-1.193c-3.761-1.193-7.889,0.917-9.082,4.679
		c-0.367,1.101-0.459,2.293-0.183,3.486c0.367,2.018,1.56,3.761,3.303,4.862l0.367,0.183c2.66,1.651,4.312,4.587,4.128,7.798
		C25.564,24.556,25.504,24.783,25.412,25.058L25.412,25.058z M16.972,32.306l0.183-0.092c2.018-1.193,3.945-2.66,5.688-4.22
		c0.092-0.092,0.183-0.183,0.275-0.367c0.092-0.183,0.241-0.388,0.367-0.642c0.826-1.651,1.009-3.486,0.459-5.229
		c-1.009-3.394-4.312-5.504-7.798-5.137c-0.917,0.092-1.835,0.459-2.752,0.917c-1.56,0.917-3.394,1.284-5.137,1.101
		c-0.917-0.092-1.743-0.275-2.569-0.642c-0.642-0.275-1.314-0.633-1.864-1.091L3.649,16.74c0.03,0.078,0.106,0.252,0.106,0.252
		c0.734,1.835,1.658,3.572,2.667,5.224c2.293,3.578,5.32,6.717,8.898,9.103C15.814,31.678,16.332,31.996,16.972,32.306
		L16.972,32.306z"/>
</g>
</svg>
