<?xml version="1.0" encoding="UTF-8" standalone="no"?>
<svg
   xmlns:dc="http://purl.org/dc/elements/1.1/"
   xmlns:cc="http://creativecommons.org/ns#"
   xmlns:rdf="http://www.w3.org/1999/02/22-rdf-syntax-ns#"
   xmlns:svg="http://www.w3.org/2000/svg"
   xmlns="http://www.w3.org/2000/svg"
   xmlns:sodipodi="http://sodipodi.sourceforge.net/DTD/sodipodi-0.dtd"
   xmlns:inkscape="http://www.inkscape.org/namespaces/inkscape"
   viewBox="0 0 31.620135 45.629359"
   version="1.1"
   id="svg20"
   sodipodi:docname="ost.svg"
   width="31.620134"
   height="45.62936"
   inkscape:version="0.92.2 (5c3e80d, 2017-08-06)">
  <metadata
     id="metadata24">
    <rdf:RDF>
      <cc:Work
         rdf:about="">
        <dc:format>image/svg+xml</dc:format>
        <dc:type
           rdf:resource="http://purl.org/dc/dcmitype/StillImage" />
        <dc:title>ost-kit-brand-menu</dc:title>
      </cc:Work>
    </rdf:RDF>
  </metadata>
  <sodipodi:namedview
     pagecolor="#ffffff"
     bordercolor="#666666"
     borderopacity="1"
     objecttolerance="10"
     gridtolerance="10"
     guidetolerance="10"
     inkscape:pageopacity="0"
     inkscape:pageshadow="2"
     inkscape:window-width="1858"
     inkscape:window-height="1057"
     id="namedview22"
     showgrid="false"
     fit-margin-top="0"
     fit-margin-left="0"
     fit-margin-right="0"
     fit-margin-bottom="0"
     inkscape:zoom="3.409142"
     inkscape:cx="5.6672031"
     inkscape:cy="13.576524"
     inkscape:window-x="54"
     inkscape:window-y="-8"
     inkscape:window-maximized="1"
     inkscape:current-layer="Group-2" />
  <defs
     id="defs4">
    <style
       id="style2">.cls-1{fill:#34445b;}.cls-2{fill:#84d1d4;}</style>
  </defs>
  <title
     id="title6">ost-kit-brand-menu</title>
  <g
     id="Layer_2"
     data-name="Layer 2"
     transform="translate(-58.364933,0.01316387)">
    <g
       id="Layer_1-2"
       data-name="Layer 1">
      <g
         id="ostKYC-mobile---Menu-Opened">
        <g
           id="Group-54">
          <g
             id="ost-kyc-brand-copy">
            <g
               id="Group-2">
              <path
                 id="ost_logo"
                 data-name="ost logo"
                 class="cls-1"
                 d="m 75.83,14.12 4,-6.19 c 2.169324,0.4755205 4.310715,-0.907181 4.77,-3.08 1.113333,-5.23999769 -6.746667,-6.9099977 -7.86,-1.67 -0.234304,1.1223055 0.02424,2.2911987 0.71,3.21 L 72.5,14.1 c -8.35842,0.89055 -14.558685,8.166419 -14.112422,16.557099 0.446247,8.390368 7.382569,14.959098 15.787422,14.959098 8.404853,0 15.341175,-6.56873 15.787422,-14.959098 C 90.408685,22.266419 84.20842,14.99055 75.85,14.1 Z M 74,38.06 C 67.289449,38.012333 63.380658,30.462387 67.214755,24.95514 71.048853,19.447892 79.486135,20.493175 81.86,26.77 79.226591,23.363757 73.790061,24.84492 73.247556,29.115576 72.70505,33.386232 77.598577,36.179632 81,33.54 c 0.318119,-0.239093 0.600907,-0.521881 0.84,-0.84 -1.227143,3.256792 -4.359901,5.398576 -7.84,5.36 z"
                 inkscape:connector-curvature="0"
                 style="fill:#34445b"
                 sodipodi:nodetypes="ccccccssscccscsccc" />
            </g>
          </g>
        </g>
      </g>
    </g>
  </g>
</svg>
