<?xml version="1.0" encoding="UTF-8" standalone="no"?>
<!-- Created with Inkscape (http://www.inkscape.org/) -->

<svg
   xmlns:dc="http://purl.org/dc/elements/1.1/"
   xmlns:cc="http://creativecommons.org/ns#"
   xmlns:rdf="http://www.w3.org/1999/02/22-rdf-syntax-ns#"
   xmlns:svg="http://www.w3.org/2000/svg"
   xmlns="http://www.w3.org/2000/svg"
   xmlns:sodipodi="http://sodipodi.sourceforge.net/DTD/sodipodi-0.dtd"
   xmlns:inkscape="http://www.inkscape.org/namespaces/inkscape"
   width="117.73958mm"
   height="72.760414mm"
   viewBox="0 0 117.73958 72.760414"
   version="1.1"
   id="svg8"
   inkscape:version="0.92.2 (5c3e80d, 2017-08-06)"
   sodipodi:docname="polymath.svg">
  <defs
     id="defs2" />
  <sodipodi:namedview
     id="base"
     pagecolor="#ffffff"
     bordercolor="#666666"
     borderopacity="1.0"
     inkscape:pageopacity="0.0"
     inkscape:pageshadow="2"
     inkscape:zoom="0.98994949"
     inkscape:cx="284.05062"
     inkscape:cy="363.09335"
     inkscape:document-units="mm"
     inkscape:current-layer="g290"
     showgrid="false"
     inkscape:window-width="1858"
     inkscape:window-height="1057"
     inkscape:window-x="54"
     inkscape:window-y="-8"
     inkscape:window-maximized="1"
     inkscape:pagecheckerboard="true"
     borderlayer="false"
     fit-margin-top="0"
     fit-margin-left="0"
     fit-margin-right="0"
     fit-margin-bottom="0" />
  <metadata
     id="metadata5">
    <rdf:RDF>
      <cc:Work
         rdf:about="">
        <dc:format>image/svg+xml</dc:format>
        <dc:type
           rdf:resource="http://purl.org/dc/dcmitype/StillImage" />
        <dc:title></dc:title>
      </cc:Work>
    </rdf:RDF>
  </metadata>
  <g
     inkscape:label="Layer 1"
     inkscape:groupmode="layer"
     id="layer1"
     transform="translate(-17.373677,-99.775804)">
    <g
       id="g290"
       transform="matrix(0.26458333,0,0,0.26458333,15.25701,97.024137)">
      <polygon
         id="polygon82"
         points="386,53.7 410.8,19.3 436.4,11.7 408.8,12.3 368.7,41.4 331.1,38.7 368.8,64.5 387.4,77.6 330.8,37.8 278.2,11.7 278.2,11.7 247,17.9 149.7,98.9 102.9,114 83.6,133.7 49,134.1 32,165.9 8,172.8 30.7,176 51.8,147.5 84.3,154.3 83.8,184.7 67.5,228.6 58.2,269.2 48.2,285.4 73.6,279.8 70.7,263.2 92.2,218.6 133.9,201.9 150,175.2 177.2,155.3 231.1,163.3 285.6,139.4 276.3,177.1 252.1,179.3 245.2,210.4 266,196.5 300.2,181.6 327.1,139.6 328.7,119.6 343.2,134.6 385.1,160.8 408.8,149.6 407.4,93.9 400.6,72.4 431.7,64.6 453,38.3 452.1,23.3 447.7,35.8 422.9,57.5 394.5,61.9 "
         class="st2"
         style="fill:#313a62" />
      <g
         id="g190">
        <g
           id="g168">
          <polygon
             id="polygon84"
             points="410.8,19.3 386.3,54.2 368,40.9 "
             class="st3"
             style="fill:#3f4b80" />
          <polygon
             id="polygon86"
             points="337.2,82 277.5,10.4 330.8,37.8 "
             class="st2"
             style="fill:#313a62" />
          <polygon
             id="polygon88"
             points="277.5,10.4 337.2,82 328.7,119.6 "
             class="st3"
             style="fill:#3f4b80" />
          <polygon
             id="polygon90"
             points="277.6,10.6 328.7,119.6 247.1,16.6 "
             class="st4"
             style="fill:#4b5897" />
          <polygon
             id="polygon92"
             points="247.1,16.6 328.7,119.6 240.2,85 "
             class="st5"
             style="fill:#5161a4" />
          <polygon
             id="polygon94"
             points="149,97.8 247.1,16.6 240.2,85 "
             class="st4"
             style="fill:#4b5897" />
          <polygon
             id="polygon96"
             points="240.2,85 328.7,119.6 231.1,146.1 "
             class="st4"
             style="fill:#4b5897" />
          <polygon
             id="polygon98"
             points="284.7,140.1 231.1,146.1 328.7,119.6 "
             class="st3"
             style="fill:#3f4b80" />
          <polygon
             id="polygon100"
             points="232,164.5 177.2,155.3 231.1,146.1 "
             class="st3"
             style="fill:#3f4b80" />
          <polygon
             id="polygon102"
             points="284.7,140.1 232,164.5 231.1,146.1 "
             class="st2"
             style="fill:#313a62" />
          <polygon
             id="polygon104"
             points="231.1,146.1 149,97.8 240.2,85 "
             class="st3"
             style="fill:#3f4b80" />
          <polygon
             id="polygon106"
             points="177.2,155.3 149,97.8 231.1,146.1 "
             class="st4"
             style="fill:#4b5897" />
          <polygon
             id="polygon108"
             points="150,175.2 149,97.8 177.2,155.3 "
             class="st2"
             style="fill:#313a62" />
          <polygon
             id="polygon110"
             points="83.6,133.7 102.7,113.3 113.6,178.8 "
             class="st5"
             style="fill:#5161a4" />
          <polygon
             id="polygon112"
             points="83.8,154.8 49,134.1 83.6,133.7 "
             class="st2"
             style="fill:#313a62" />
          <polygon
             id="polygon114"
             points="83.8,154.8 51.8,148.4 49,134.1 "
             class="st3"
             style="fill:#3f4b80" />
          <polygon
             id="polygon116"
             points="49,134.1 51.8,148.4 32,165.9 "
             class="st4"
             style="fill:#4b5897" />
          <polygon
             id="polygon118"
             points="8,172.8 32,165.9 30.6,176.5 "
             class="st2"
             style="fill:#313a62" />
          <polygon
             id="polygon120"
             points="30.6,176.5 32,165.9 51.8,148.4 "
             class="st5"
             style="fill:#5161a4" />
          <polygon
             id="polygon122"
             points="83.8,184.7 83.6,133.7 113.6,178.8 "
             class="st3"
             style="fill:#3f4b80" />
          <polygon
             id="polygon124"
             points="67.5,228.6 92.4,218.3 70.7,263.2 "
             class="st3"
             style="fill:#3f4b80" />
          <polygon
             id="polygon126"
             points="58.2,269.2 67.5,228.6 70.7,263.2 "
             class="st6"
             style="fill:#1f243e" />
          <polygon
             id="polygon128"
             points="48.2,285.4 70.7,263.2 74,280.1 "
             class="st3"
             style="fill:#3f4b80" />
          <polygon
             id="polygon130"
             points="48.2,285.4 58.2,269.2 70.7,263.2 "
             class="st2"
             style="fill:#313a62" />
          <polygon
             id="polygon132"
             points="67.5,228.6 83.8,184.7 113.6,178.8 "
             class="st2"
             style="fill:#313a62" />
          <polygon
             id="polygon134"
             points="67.5,228.6 113.6,178.8 133.9,201.9 "
             class="st4"
             style="fill:#4b5897" />
          <polygon
             id="polygon136"
             points="113.6,178.8 102.7,113.3 149,97.8 "
             class="st4"
             style="fill:#4b5897" />
          <polygon
             id="polygon138"
             points="150,175.2 113.6,178.8 149,97.8 "
             class="st3"
             style="fill:#3f4b80" />
          <polygon
             id="polygon140"
             points="150,175.2 133.9,201.9 113.6,178.8 "
             class="st2"
             style="fill:#313a62" />
          <polygon
             id="polygon142"
             points="300.2,181.6 284.7,140.1 327.6,139.8 "
             class="st4"
             style="fill:#4b5897" />
          <polygon
             id="polygon144"
             points="327.6,139.8 284.7,140.1 328.7,119.6 "
             class="st5"
             style="fill:#5161a4" />
          <polygon
             id="polygon146"
             points="300.2,181.6 276.3,177.1 284.7,140.1 "
             class="st3"
             style="fill:#3f4b80" />
          <polygon
             id="polygon148"
             points="300.2,181.6 266,196.5 276.3,177.1 "
             class="st4"
             style="fill:#4b5897" />
          <polygon
             id="polygon150"
             points="276.3,177.1 245.2,210.4 251.7,178.6 "
             class="st3"
             style="fill:#3f4b80" />
          <polygon
             id="polygon152"
             points="266,196.5 245.2,210.4 276.3,177.1 "
             class="st2"
             style="fill:#313a62" />
          <polygon
             id="polygon154"
             points="410.8,19.3 368,40.9 408.8,12.3 "
             class="st7"
             style="fill:#495692" />
          <polygon
             id="polygon156"
             points="410.8,19.3 408.8,12.3 442.2,10.6 "
             class="st8"
             style="fill:#5d6cac" />
          <polygon
             id="polygon158"
             points="431.7,64.6 387.4,77.6 368.8,64.5 "
             class="st9"
             style="fill:#4f60a3" />
          <polygon
             id="polygon160"
             points="431.7,64.6 368.8,64.5 422.9,57.5 "
             class="st7"
             style="fill:#495692" />
          <polygon
             id="polygon162"
             points="431.7,64.6 422.9,57.5 447.7,35.8 "
             class="st3"
             style="fill:#3f4b80" />
          <polygon
             id="polygon164"
             points="453,38.3 431.7,64.6 447.7,35.8 "
             class="st9"
             style="fill:#4f60a3" />
          <polygon
             id="polygon166"
             points="453,38.3 447.7,35.8 452.1,23.3 "
             class="st2"
             style="fill:#313a62" />
        </g>
        <polygon
           id="polygon170"
           points="328.7,119.6 337.2,82 343.2,134.6 "
           class="st2"
           style="fill:#313a62" />
        <polygon
           id="polygon172"
           points="387.4,77.6 343.2,134.6 337.2,82 "
           class="st3"
           style="fill:#3f4b80" />
        <polygon
           id="polygon174"
           points="330.8,37.8 387.4,77.6 337.2,82 "
           class="st4"
           style="fill:#4b5897" />
        <polygon
           id="polygon176"
           points="368.8,64.5 386.3,54.2 394.4,61.5 "
           class="st2"
           style="fill:#313a62" />
        <polygon
           id="polygon178"
           points="368.8,64.5 330.8,37.8 386.3,54.2 "
           class="st3"
           style="fill:#3f4b80" />
        <polygon
           id="polygon180"
           points="386.3,54.2 330.8,37.8 368,40.9 "
           class="st2"
           style="fill:#313a62" />
        <polygon
           id="polygon182"
           points="407.4,93.9 385.1,160.8 387.4,77.6 "
           class="st3"
           style="fill:#3f4b80" />
        <polygon
           id="polygon184"
           points="343.2,134.6 385.1,160.8 387.4,77.6 "
           class="st7"
           style="fill:#495692" />
        <polygon
           id="polygon186"
           points="387.4,77.6 407.4,93.9 401,73.1 "
           class="st2"
           style="fill:#313a62" />
        <polygon
           id="polygon188"
           points="407.4,93.9 410.1,149.3 385.1,160.8 "
           class="st2"
           style="fill:#313a62" />
      </g>
    </g>
  </g>
  <style
     id="style10"
     type="text/css">
	.st0{fill:#2A3F7D;}
	.st1{fill:#366FA0;}
	.st2{fill:#313A62;}
	.st3{fill:#3F4B80;}
	.st4{fill:#4B5897;}
	.st5{fill:#5161A4;}
	.st6{fill:#1F243E;}
	.st7{fill:#495692;}
	.st8{fill:#5D6CAC;}
	.st9{fill:#4F60A3;}
</style>
</svg>
