<?xml version="1.0" encoding="utf-8"?>
<!-- Generator: Adobe Illustrator 21.1.0, SVG Export Plug-In . SVG Version: 6.00 Build 0)  -->
<svg version="1.1" id="Слой_1" xmlns="http://www.w3.org/2000/svg" xmlns:xlink="http://www.w3.org/1999/xlink" x="0px" y="0px"
	 viewBox="0 0 31.81 34.388" enable-background="new 0 0 31.81 34.388" xml:space="preserve">
<linearGradient id="SVGID_1_" gradientUnits="userSpaceOnUse" x1="576.6895" y1="2871.7207" x2="576.6895" y2="2871.7207" gradientTransform="matrix(21.373 21.373 21.373 -21.373 -73686.8047 49035.6602)">
	<stop  offset="0" style="stop-color:#11AAE2"/>
	<stop  offset="0.594" style="stop-color:#0880B7"/>
	<stop  offset="1" style="stop-color:#016197"/>
</linearGradient>
<path fill="url(#SVGID_1_)" d="M15.969-15.976"/>
<linearGradient id="SVGID_2_" gradientUnits="userSpaceOnUse" x1="576.6895" y1="2870.158" x2="576.6895" y2="2870.158" gradientTransform="matrix(21.373 21.373 21.373 -21.373 -73686.8047 49035.6602)">
	<stop  offset="0" style="stop-color:#11AAE2"/>
	<stop  offset="0.594" style="stop-color:#0880B7"/>
	<stop  offset="1" style="stop-color:#016197"/>
</linearGradient>
<path fill="url(#SVGID_2_)" d="M-17.433,17.427"/>
<linearGradient id="SVGID_3_" gradientUnits="userSpaceOnUse" x1="8.9483" y1="5.2176" x2="32.8372" y2="29.1064">
	<stop  offset="0" style="stop-color:#11AAE2"/>
	<stop  offset="0.594" style="stop-color:#0880B7"/>
	<stop  offset="1" style="stop-color:#016197"/>
</linearGradient>
<path fill="url(#SVGID_3_)" d="M21.029,0.924c-2.26,1.329-3.596,3.724-3.596,6.254c0,1.329,0.533,2.665,1.201,3.859
	c0.533,1.066,0.796,2.928-1.066,3.859c-1.329,0.796-3.063,0.263-3.859-1.066c-0.796-1.066-1.727-2.132-2.928-2.928
	c-2.26-1.329-4.925-1.329-7.185,0S0,14.633,0,17.163s1.329,4.925,3.596,6.254c2.26,1.329,4.925,1.329,7.185,0
	c1.201-0.668,2.132-1.727,2.793-2.928c0.533-0.931,1.997-2.132,3.859-1.066c1.329,0.796,1.727,2.53,1.066,3.859
	c-0.668,1.201-1.066,2.53-1.066,3.859c0,2.53,1.329,4.925,3.596,6.254c2.26,1.329,4.925,1.329,7.185,0s3.596-3.724,3.596-6.254
	s-1.329-4.925-3.596-6.254c-1.201-0.668-2.53-0.931-3.994-0.931c-1.201,0-2.793-0.796-2.793-2.793c0-1.599,1.201-2.793,2.793-2.793
	c1.329,0,2.793-0.263,3.994-0.931c2.26-1.329,3.596-3.724,3.596-6.254s-1.329-4.925-3.596-6.254C27.148,0.263,25.819,0,24.618,0
	C23.424-0.007,22.088,0.263,21.029,0.924"/>
</svg>
