<?xml version="1.0" encoding="UTF-8" standalone="no"?>
<!-- Created with Inkscape (http://www.inkscape.org/) -->

<svg
   xmlns:dc="http://purl.org/dc/elements/1.1/"
   xmlns:cc="http://creativecommons.org/ns#"
   xmlns:rdf="http://www.w3.org/1999/02/22-rdf-syntax-ns#"
   xmlns:svg="http://www.w3.org/2000/svg"
   xmlns="http://www.w3.org/2000/svg"
   xmlns:sodipodi="http://sodipodi.sourceforge.net/DTD/sodipodi-0.dtd"
   xmlns:inkscape="http://www.inkscape.org/namespaces/inkscape"
   width="9.8793106mm"
   height="5.3281708mm"
   viewBox="0 0 9.8793106 5.3281708"
   version="1.1"
   id="svg8"
   inkscape:version="0.92.2 (5c3e80d, 2017-08-06)"
   sodipodi:docname="sirinLabsToken.svg">
  <defs
     id="defs2" />
  <sodipodi:namedview
     id="base"
     pagecolor="#ffffff"
     bordercolor="#666666"
     borderopacity="1.0"
     inkscape:pageopacity="0.0"
     inkscape:pageshadow="2"
     inkscape:zoom="3.959798"
     inkscape:cx="97.396363"
     inkscape:cy="-48.693622"
     inkscape:document-units="mm"
     inkscape:current-layer="g50"
     showgrid="false"
     inkscape:pagecheckerboard="true"
     fit-margin-top="0"
     fit-margin-left="0"
     fit-margin-right="0"
     fit-margin-bottom="0"
     inkscape:window-width="1858"
     inkscape:window-height="1057"
     inkscape:window-x="54"
     inkscape:window-y="-8"
     inkscape:window-maximized="1" />
  <metadata
     id="metadata5">
    <rdf:RDF>
      <cc:Work
         rdf:about="">
        <dc:format>image/svg+xml</dc:format>
        <dc:type
           rdf:resource="http://purl.org/dc/dcmitype/StillImage" />
        <dc:title></dc:title>
      </cc:Work>
    </rdf:RDF>
  </metadata>
  <g
     inkscape:label="Layer 1"
     inkscape:groupmode="layer"
     id="layer1"
     transform="translate(-83.990226,-207.41873)">
    <g
       id="g50"
       transform="matrix(0.26458333,0,0,0.26458333,83.978202,207.34027)">
      <path
         id="path22"
         d="m 17.9,6.1 c 0.5,0.2 1,0.1 1.5,0 0.3,1 0.8,2 1.4,2.4 -0.3,2.5 -1.3,3.5 -2.2,3.5 -1.5,0 -2.1,-3 -2.1,-3.6 0,-0.1 1,-0.8 1.4,-2.3 z m -1.3,9.2 c 0.2,0.8 0.8,2.9 2.1,2.9 0.9,0 1.9,-1.2 2.1,-2.8 -0.7,-0.4 -1,-1.4 -1.4,-2.8 -0.4,0.1 -1,0.2 -1.5,0 -0.2,1.3 -0.6,2.1 -1.3,2.7 z m -8.1,3.2 v 0 c 0.5,0.8 1.6,2.2 2.7,1.7 0.3,-0.1 0.4,-0.9 0.3,-1.7 C 10.6,18 10,17 9.5,15.6 9.3,15.7 9,15.7 8.7,15.6 8.8,17.1 8.8,18 8.5,18.5 Z M 4,15.7 c 0.4,2.3 0.5,2.5 0.4,2.8 0.7,1.4 1.5,2 2.4,1.9 0.3,0 0.1,-0.8 -0.3,-1.7 0,0 -1.3,-1 -1.9,-2.9 C 4.4,15.7 4.3,15.7 4,15.7 Z m -2.7,0 c 1,4.4 3,4.2 2.9,4 C 3.8,19 3.4,18.7 2.9,18.3 1.9,17.4 1.3,15.4 1.3,15.7 Z m 12.6,2.8 v 0 c 0.5,1.9 1.9,1.9 2.5,1.7 0.7,-0.1 1,-0.7 1.1,-1.9 -0.9,-0.6 -1.3,-2 -1.5,-2.9 -0.3,0.1 -0.8,0.1 -1.3,0 0,1.4 -0.1,2.6 -0.8,3.1 z M 5,15.3 c 0.4,1 1.7,3 2.6,3 C 8,18.3 8.2,17.6 8,15.4 7.4,15 6.9,14.1 6.5,12.8 6.3,12.9 5.9,12.9 5.6,12.8 5.4,13.9 5.3,14.7 5,15.3 Z m -3.3,0 c 0.3,0.8 1,2.6 1.9,2.9 0.4,0.2 0.4,-0.4 -0.1,-2.8 0,0 -0.7,-0.6 -1.3,-2.6 -0.1,0 -0.3,0 -0.4,0 0,0.9 -0.1,2.3 -0.1,2.5 z m 8.3,0 c 0.1,0.4 1.1,2.5 2.4,2.8 1.5,0.3 1.6,-1.6 1.6,-2.7 -0.7,-0.4 -1.3,-1.3 -1.6,-2.6 -0.3,0.1 -0.8,0.2 -1.4,0 -0.1,1.3 -0.5,2.1 -1,2.5 z M 9.1,15 c 0.6,0 1.1,-0.9 1.4,-2.7 C 9.9,11.7 9.3,10.8 9.2,8.6 8.9,8.7 8.6,8.7 8.4,8.6 c -0.3,2 -0.6,3.1 -1.3,3.8 0,0.6 0.7,2.6 2,2.6 z M 2.6,12.4 C 3.1,14.5 3.6,15 4.1,15 5,15 4.8,13.4 4.9,12.3 4.7,11.8 4,10.7 4,8.5 c -0.2,0 -0.3,0 -0.5,0 -0.7,3.3 -0.7,3.4 -0.9,3.9 z M 0.6,8.7 C 0.4,8.6 -0.7,13 0.9,14.9 1.1,15.1 1.1,12.5 1.1,12.5 0.7,11.5 0.9,8.9 0.6,8.7 Z M 13,12.4 c 0.1,0.3 0.7,2.6 2.4,2.6 1,0 1.8,-1.2 2,-2.8 -0.8,-0.8 -1.3,-2 -1.5,-3.6 -0.3,0.1 -0.8,0.1 -1.3,0 -0.4,2.1 -0.8,3.2 -1.6,3.8 z M 4.6,8.3 C 4.7,10.2 5.1,12.1 6,12.1 6.9,12.1 7.4,10 7.7,8.2 7.3,7.9 6.9,7.3 6.9,6.1 6.6,6.2 6.2,6.2 6,6 5.9,6.2 5.3,7.9 4.6,8.3 Z m -2.7,3.8 c 0.5,0 1,-3.9 1,-3.9 C 2.7,7.9 2.5,7.3 2.6,6.1 2.5,6.2 2.3,6.1 2.2,6.1 1.8,7.3 1.3,8.3 1.3,8.3 c -0.2,1.1 0,3.8 0.6,3.8 z M 9.8,8.3 c 0.1,1.3 0.7,3.8 1.9,3.8 1.4,0 1.9,-1.9 2.3,-3.8 C 13.3,7.9 13,7.1 12.7,6 12.2,6.1 11.8,6.1 11.4,5.9 11.1,6.9 10.2,8.1 9.8,8.3 Z m 1,-2.8 C 10.5,5.1 10.1,4.3 10.3,2.8 10,2.8 9.8,2.8 9.6,2.8 9.1,3.8 8.5,5 7.6,5.7 7.6,5.9 7.7,8 8.8,8 9.5,8.1 10.1,7.1 10.8,5.5 Z M 5.6,2.8 c -0.1,0 -0.3,0 -0.4,0 C 5.2,2.9 3.8,5.3 3.3,5.7 3,6.7 3,7.9 3.6,8 4.2,8 4.6,7.5 5.4,5.4 5.3,5 5.1,4.3 5.6,2.8 Z m -3,0.1 C 1.1,4 0.3,7.7 0.7,7.8 0.8,7.9 2,6.2 1.9,5.1 1.8,4.4 2.9,2.8 2.6,2.9 Z M 17.4,5.5 C 17,5.1 16.5,4.3 16.3,2.8 16,2.9 15.5,2.9 15.2,2.8 14.9,3.7 14.4,5 13.4,5.7 13.5,6.7 14,7.9 15,8 16.6,8.1 17.1,6.6 17.4,5.5 Z M 3.2,2.6 c -1,1.6 -1,2.9 -0.6,2.9 0.5,0 1.9,-2.6 2.3,-3.1 -0.1,-0.5 1,-1.6 0.6,-1.7 -0.6,0 -2,1.8 -2.3,1.9 z m 25.6,13 c -0.3,0.1 -0.6,0.1 -0.8,0 -0.4,1.4 -1,2.4 -1.9,2.9 -0.1,0.7 -0.1,1.6 0.3,1.7 1.1,0.4 2.3,-0.8 2.7,-1.7 v 0 C 28.7,18 28.7,17.1 28.8,15.6 Z m 4.2,0 c -0.8,1.9 -1.9,2.9 -1.9,2.9 -0.5,0.9 -0.7,1.7 -0.3,1.7 0.9,0 1.7,-0.5 2.4,-1.9 -0.1,-0.3 0,-0.5 0.4,-2.8 -0.3,0.2 -0.5,0.2 -0.6,0.1 z m 1.6,2.7 c -0.4,0.4 -0.8,0.6 -1.1,1.4 -0.1,0.2 1.8,0.4 2.9,-4 -0.2,-0.3 -0.8,1.7 -1.8,2.6 z M 22.7,15.6 c -0.4,0.1 -0.8,0.1 -1.3,0 -0.2,0.9 -0.6,2.2 -1.5,2.9 0.2,1 0.4,1.7 1.1,1.9 0.5,0.1 1.9,0.1 2.5,-1.7 v 0 C 23,18 22.7,16.8 22.7,15.6 Z M 32,12.8 c -0.4,0.2 -0.7,0.1 -0.9,0 -0.3,1.2 -0.8,2.2 -1.5,2.6 -0.2,2.2 0,2.9 0.4,2.9 0.8,0 2.1,-2 2.6,-3 C 32.1,14.7 32,13.9 32,12.8 Z m 3.8,0.1 c -0.1,0 -0.3,0 -0.4,0 -0.5,1.9 -1.3,2.6 -1.3,2.6 -0.5,2.3 -0.6,2.9 -0.1,2.8 0.8,-0.3 1.6,-2.1 1.9,-2.9 -0.1,-0.3 -0.1,-1.7 -0.1,-2.5 z m -9.3,-0.1 c -0.5,0.2 -1,0.1 -1.4,0 -0.3,1.3 -0.8,2.2 -1.6,2.6 0,1 0.1,3 1.6,2.7 1.1,-0.2 2.3,-2.3 2.4,-2.8 -0.6,-0.4 -0.8,-1.2 -1,-2.5 z m 4,-0.4 C 30,11.8 29.7,10.5 29.2,8.6 c -0.3,0.1 -0.5,0.1 -0.8,0 -0.1,2.2 -0.7,3.2 -1.3,3.7 0.2,1.7 0.7,2.7 1.4,2.7 1,0 1.9,-2 2,-2.6 z M 34,8.6 c -0.2,0 -0.3,0.1 -0.5,0 0,2.2 -0.5,3.2 -0.9,3.7 0.1,1 -0.1,2.7 0.8,2.7 0.4,0 0.9,-0.6 1.5,-2.6 C 34.7,11.9 34.6,11.8 34,8.6 Z m 2.3,3.8 c 0,0 0,2.6 0.2,2.4 1.6,-1.7 0.6,-6.3 0.3,-6.2 -0.2,0.3 0,2.9 -0.5,3.8 z M 23,8.6 c -0.5,0.1 -1,0.1 -1.3,0 -0.2,1.6 -0.7,2.7 -1.5,3.6 0.3,1.6 0.9,2.9 2,2.8 1.5,0 2.3,-2.3 2.4,-2.6 C 23.8,11.8 23.3,10.7 23,8.6 Z M 31.6,6 c -0.3,0.2 -0.6,0.2 -0.9,0.1 0,1.3 -0.4,2 -0.7,2.3 0.3,1.9 0.7,3.9 1.7,3.9 0.8,0 1.4,-2 1.4,-3.8 C 32.2,7.9 31.6,6.2 31.6,6 Z m 4.7,2.3 c 0,0 -0.5,-0.9 -0.9,-2.3 -0.1,0.1 -0.3,0.1 -0.4,0 0.1,1.1 -0.2,1.7 -0.4,2.2 0,0 0.5,3.9 1,3.9 0.6,0 0.8,-2.7 0.7,-3.8 z M 26.2,6 c -0.4,0.2 -1,0.2 -1.4,0.1 -0.1,1 -0.5,1.9 -1.1,2.3 0.3,2 0.7,3.9 2.3,3.8 1.1,0 1.8,-2.5 1.9,-3.8 C 27.2,8.1 26.5,6.9 26.2,6 Z m 2.5,1.9 c 1,0 1.1,-2.1 1.1,-2.4 C 29.1,5 28.4,3.8 27.9,2.7 c -0.2,0.1 -0.4,0.1 -0.7,0 0.2,1.5 -0.1,2.3 -0.5,2.7 0.6,1.7 1.3,2.7 2,2.5 z M 32,5.5 c 0.7,2 1.1,2.5 1.7,2.5 0.6,-0.1 0.6,-1.3 0.4,-2.4 -0.5,-0.3 -1.9,-2.8 -1.9,-2.9 -0.1,0 -0.2,0 -0.4,0 0.5,1.6 0.3,2.3 0.2,2.8 z M 35.6,5.1 C 35.5,6 36.6,7.9 36.7,7.8 37,7.7 36.4,3.9 34.8,2.9 34.6,2.8 35.7,4.4 35.6,5.1 Z M 22.4,7.9 C 23.4,7.8 24,6.7 24.1,5.5 23.3,4.9 22.7,3.6 22.4,2.7 c -0.3,0.1 -0.8,0.1 -1.1,0 -0.1,1.5 -0.6,2.4 -1.1,2.7 0.2,1.2 0.6,2.7 2.2,2.5 z M 32,0.7 c -0.4,0 0.7,1.2 0.6,1.7 0.3,0.5 1.7,3.1 2.3,3.1 0.4,0 0.4,-1.3 -0.7,-2.9 C 34,2.5 32.6,0.7 32,0.7 Z M 9,1 C 9,1 9.2,0.5 8.9,0.4 8.4,0.4 7,2.4 6.3,2.7 6.2,2.9 5.3,5.3 6.4,5.5 7.3,5.6 8.3,3.7 9,2.6 8.7,2.3 8.8,1.7 9,1 Z m 4.9,-0.1 c 0,-0.1 0,-0.6 -0.5,-0.6 -0.6,0 -1.5,2 -2.4,2.3 -0.2,1.2 0,2.7 0.9,2.8 C 13.3,5.5 14,3.8 14.5,2.6 14,2.3 13.9,1.6 13.9,0.9 Z m 14.7,1.7 c 0.6,1.2 1.6,3 2.6,2.9 1,-0.2 0.2,-2.6 0.1,-2.8 -0.6,-0.3 -2,-2.3 -2.6,-2.3 -0.3,0 -0.1,0.5 -0.1,0.6 0.2,0.7 0.2,1.3 0,1.6 z m -5.5,0 c 0.4,1.2 1.1,3 2.6,2.8 1,-0.1 1.3,-1.5 0.9,-2.8 -0.8,-0.3 -1.8,-2.4 -2.4,-2.3 -0.5,0 -0.5,0.5 -0.5,0.6 -0.1,0.7 -0.2,1.4 -0.6,1.7 z M 18.8,0.3 c -1.1,0 -0.7,1.9 -1.9,2.4 0.1,0.9 0.4,2.8 1.8,2.8 1.7,0 1.9,-2.3 1.9,-2.8 C 19.7,2.3 19.7,0.3 18.8,0.3 Z"
         class="st0"
         inkscape:connector-curvature="0"
         style="fill:#000000" />
    </g>
  </g>
  <style
     id="style10"
     type="text/css">
	.st0{fill:#FFFFFF;}
</style>
</svg>
