<?xml version="1.0" encoding="utf-8"?>
<!-- Generator: Adobe Illustrator 21.1.0, SVG Export Plug-In . SVG Version: 6.00 Build 0)  -->
<svg version="1.2" baseProfile="tiny" id="Layer_1" xmlns="http://www.w3.org/2000/svg" xmlns:xlink="http://www.w3.org/1999/xlink"
	 x="0px" y="0px" viewBox="0 0 26.612 33.38" overflow="auto" xml:space="preserve">
<g>
	<path fill="#ED8117" d="M8.243,24.635c1.483,1.053,4.203-0.26,6.132-2.93c0.027-0.035,0.056-0.068,0.082-0.105
		c1.061-1.516,0.695-3.611-0.815-4.683s-3.593-0.711-4.652,0.804c-0.026,0.037-0.047,0.076-0.072,0.114
		C7.071,20.562,6.76,23.583,8.243,24.635"/>
	<path fill="#EEBB18" d="M9.761,22.616c1.032,0.715,2.939-0.195,4.296-2.032c0.02-0.024,0.04-0.047,0.059-0.073
		c0.736-1.018,0.508-2.44-0.51-3.177c-0.013-0.01-0.027-0.019-0.041-0.029c-1.051-0.729-2.509-0.474-3.256,0.569
		c-0.019,0.026-0.033,0.052-0.05,0.078C8.957,19.829,8.727,21.9,9.761,22.616"/>
	<g>
		<path fill="#5B6A72" d="M3.35,13.94c-0.156,0.2-0.232,0.502,0.191,0.37c1.207-0.375,3.943-0.813,7.119,1.389
			c4.289,2.975,3.941-4.736,3.941-4.736C13.582,10.258,8.456,7.393,3.35,13.94 M19.656,25.565c0.018,0.436,0.275,0.265,0.41,0.054
			c4.415-6.9,0.019-10.702-0.983-11.411c0,0-7.329,2.231-3.11,5.22C19.097,21.641,19.603,24.322,19.656,25.565"/>
	</g>
	<path fill="#DCF2F9" d="M15.2,20.597c0.838,0.619,1.344,0.72,1.953-0.032c0.609-0.752,3.81-4.506,7.008-8.646
		s1.247-11.262,0.863-11.546L25.019,0.38l0.003-0.008c-0.384-0.284-7.438,0.188-10.077,4.74s-4.933,8.977-5.403,9.83
		c-0.47,0.854-0.209,1.322,0.629,1.94c0.382,0.281,1.456,1.075,2.514,1.857S14.819,20.316,15.2,20.597"/>
	<path fill="#5B6A72" d="M16.144,21.512h-0.035c-0.382-0.01-0.781-0.181-1.333-0.572c-0.388-0.274-1.469-1.039-2.546-1.803
		l-0.063-0.045l-1.695-1.199l-0.915-0.648c-0.551-0.39-0.845-0.709-0.983-1.067c-0.216-0.559,0.017-1.073,0.21-1.41
		c0.101-0.177,0.287-0.511,0.543-0.973c0.943-1.699,2.904-5.234,5.072-8.815c0.78-1.289,1.973-2.37,3.546-3.216
		c0.831-0.447,2.22-1.062,4.111-1.455c0.748-0.155,1.514-0.261,2.158-0.297c0.987-0.055,1.162,0.069,1.246,0.129l0.008,0.006
		C25.552,0.21,25.726,0.35,26,1.282c0.184,0.624,0.343,1.388,0.449,2.151c0.29,2.091,0.442,6.015-1.801,8.796
		c-2.626,3.257-5.279,6.303-6.554,7.766c-0.347,0.399-0.598,0.687-0.729,0.842c-0.191,0.226-0.379,0.39-0.574,0.501
		C16.593,21.451,16.371,21.511,16.144,21.512 M24.68,0.832c-0.691,0-2.201,0.142-3.904,0.664c-1.846,0.565-4.328,1.703-5.666,3.916
		c-2.16,3.567-4.117,7.093-5.057,8.788c-0.258,0.465-0.445,0.801-0.549,0.983c-0.225,0.392-0.2,0.578-0.155,0.696
		c0.073,0.188,0.291,0.406,0.688,0.687l0.915,0.648l1.695,1.199l0.064,0.045c1.078,0.763,2.158,1.527,2.546,1.803
		c0.818,0.579,1.06,0.525,1.471,0.039c0.135-0.16,0.388-0.451,0.737-0.851c1.272-1.46,3.918-4.498,6.533-7.742
		c1.624-2.013,1.855-4.745,1.763-6.683c-0.1-2.099-0.6-3.768-0.799-4.181C24.869,0.835,24.775,0.831,24.68,0.832"/>
	<path fill="#FEFEFE" d="M17.783,10.389c1.336,0.942,3.183,0.622,4.123-0.715s0.621-3.183-0.716-4.125s-3.182-0.622-4.123,0.715
		C16.127,7.601,16.447,9.447,17.783,10.389"/>
	<path fill="#5B6A72" d="M19.48,11.348c-1.866-0.005-3.375-1.523-3.37-3.389c0.002-0.693,0.217-1.368,0.616-1.935
		c1.072-1.524,3.177-1.891,4.701-0.818c0.001,0.001,0.002,0.002,0.004,0.003c1.523,1.073,1.889,3.185,0.816,4.707
		c-0.514,0.734-1.3,1.232-2.183,1.383C19.871,11.331,19.676,11.348,19.48,11.348 M19.491,5.425c-0.147,0-0.295,0.013-0.44,0.038
		c-0.664,0.114-1.256,0.488-1.642,1.041c-0.807,1.146-0.531,2.736,0.614,3.544c1.147,0.809,2.731,0.534,3.54-0.612
		c0-0.001,0.001-0.001,0.001-0.001c0.808-1.147,0.532-2.736-0.614-3.544C20.523,5.588,20.014,5.425,19.491,5.425"/>
	<g>
		<path fill="#979797" d="M0,33.139l4.688-6.597l0.34,0.242L0.34,33.38L0,33.139z M2.688,32.298L5.43,28.42l0.342,0.242L3.03,32.54
			L2.688,32.298z"/>
	</g>
</g>
</svg>
